<svg id="Layer_1" data-name="Layer 1" xmlns="http://www.w3.org/2000/svg" xmlns:xlink="http://www.w3.org/1999/xlink" viewBox="0 0 1000 1000"><defs><style>.cls-1{fill:url(#linear-gradient);}</style><linearGradient id="linear-gradient" x1="381.65" y1="323.31" x2="379.56" y2="480.16" gradientUnits="userSpaceOnUse"><stop offset="0" stop-color="#e40303"/><stop offset="0.19" stop-color="#ff8c00"/><stop offset="0.39" stop-color="#ffed00"/><stop offset="0.58" stop-color="#008026"/><stop offset="0.8" stop-color="#004dff"/><stop offset="1" stop-color="#750787"/></linearGradient></defs><title>try the menu logo colour</title><path class="cls-1" d="M291.47,326.7v13.35a6.66,6.66,0,0,1-6.67,6.66H254.21a6.67,6.67,0,0,0-6.66,6.67V478.2a6.67,6.67,0,0,1-6.67,6.66H221.15a6.66,6.66,0,0,1-6.66-6.66V353.38a6.67,6.67,0,0,0-6.67-6.67H177.23a6.67,6.67,0,0,1-6.67-6.66V326.7a6.67,6.67,0,0,1,6.67-6.67H284.8A6.66,6.66,0,0,1,291.47,326.7Zm300.22,5.49L543.2,425.67a8.29,8.29,0,0,0-.94,3.84v47a8.31,8.31,0,0,1-8.32,8.32H517.52a8.32,8.32,0,0,1-8.32-8.32v-47a8.32,8.32,0,0,0-.94-3.84L459.57,332.2A8.33,8.33,0,0,1,467,320h18.31a8.32,8.32,0,0,1,7.53,4.78l25.62,54.48a8.32,8.32,0,0,0,15.07,0l25.43-54.44a8.32,8.32,0,0,1,7.54-4.8H584.3A8.33,8.33,0,0,1,591.69,332.19ZM401.45,421.53a3.16,3.16,0,0,1,1.67-4.6q15.88-5.21,24.37-17a49.08,49.08,0,0,0,9.45-29.41,49.71,49.71,0,0,0-6.73-25.62Q423.48,333.5,410,326.76T377.43,320H328.68a13.11,13.11,0,0,0-13.12,13.12v86.19a3.17,3.17,0,0,1-3.18,3.17h0a3.18,3.18,0,0,0-2.08,5.57L330.86,446a3.18,3.18,0,0,0,4.24-.07L354.35,428a3.17,3.17,0,0,0-2.16-5.5h-.4a3.17,3.17,0,0,1-3.17-3.17V350.6a3.17,3.17,0,0,1,3.17-3.18h24.46q13.46,0,20.07,6.26t6.61,17.59q0,11.58-6.61,18.07t-20.07,6.49H360.08a3.17,3.17,0,0,0-2.81,4.64l12.1,23.22,34.2,59.58a3.17,3.17,0,0,0,2.75,1.59h26.95a3.17,3.17,0,0,0,2.73-4.78Z"/><path d="M178.31,659.91l1.27-119.35s23-4.78,31,12.71c0,0,12.53-18.3,36.33-17.85s35,21.45,35,21.45,10.37-24.26,43.82-21.46,36.06,36.16,36.06,36.16v88.34h-37.6v-31s15.69-6.31,11.72-28.3-18.21-31.92-18.21-31.92-4.5-2.16-8.65-.18-16.23,15.87-18.21,30.65,6.85,28.13,12.44,30.66l.36,30.1H245V630.17s12.08-4.87,11.36-18-3.24-16-6.49-43.28l-3.6-.18v45.44h-4v-46h-4.87V614.3h-5v-46h-4.86v46h-5V568.68h-3.61s-5,35.52-5.23,44.72,5.77,16.59,12.44,16.22v30.29Z"/><path d="M502.34,606.47h-77a4.76,4.76,0,0,0-4.7,5.72,23.3,23.3,0,0,0,6.67,12.13,23,23,0,0,0,16.28,6.18q12.93,0,18.78-9.83a5,5,0,0,1,4.32-2.3h31.21a4.79,4.79,0,0,1,4.5,6.46,56.54,56.54,0,0,1-29.84,31.27,66,66,0,0,1-27.62,5.61q-18.42,0-32.79-7.86a55.88,55.88,0,0,1-22.46-22.46q-8.08-14.6-8.08-34.13t8-34.14a55.23,55.23,0,0,1,22.34-22.46q14.37-7.85,33-7.86,18.19,0,32.34,7.64a54.87,54.87,0,0,1,22.12,21.78q8,14.16,8,33c0,2.19-.08,4.43-.25,6.74A4.81,4.81,0,0,1,502.34,606.47Zm-39.63-21.34a4.82,4.82,0,0,0,4.61-6.09,18.71,18.71,0,0,0-6-9.63q-6.74-5.83-16.84-5.84a24.31,24.31,0,0,0-16.28,5.61,22.64,22.64,0,0,0-6.53,9.43,4.81,4.81,0,0,0,4.47,6.52Z"/><path d="M639.08,547.51q13.14,14.26,13.14,39.19v68.45a4.78,4.78,0,0,1-4.77,4.77H618.81a4.77,4.77,0,0,1-4.77-4.77V591.87q0-12.58-6.51-19.54t-17.52-7q-11,0-17.52,7T566,591.87v63.28a4.77,4.77,0,0,1-4.77,4.77H532.34a4.78,4.78,0,0,1-4.77-4.77V539.37a4.77,4.77,0,0,1,4.77-4.77h28.87a4.76,4.76,0,0,1,4.77,4.77h0a4.74,4.74,0,0,0,7.65,3.76,43.55,43.55,0,0,1,8.07-5,50,50,0,0,1,22.23-4.83Q625.94,533.25,639.08,547.51Z"/><path d="M802.68,539.37V655.15a4.77,4.77,0,0,1-4.76,4.77H769.05a4.78,4.78,0,0,1-4.77-4.77v-.41a4.73,4.73,0,0,0-7.66-3.75,47.09,47.09,0,0,1-8.17,5.22,48.33,48.33,0,0,1-22.12,5q-14.37,0-25.38-6.4a43.15,43.15,0,0,1-17.07-18.52q-6.06-12.14-6.06-28.53V539.37a4.76,4.76,0,0,1,4.77-4.77h28.64a4.77,4.77,0,0,1,4.77,4.77v63.28q0,12.57,6.51,19.53t17.52,7q11.22,0,17.74-7t6.51-19.53V539.37a4.77,4.77,0,0,1,4.77-4.77h28.87A4.76,4.76,0,0,1,802.68,539.37Z"/><path d="M633.14,477.46v13.4a2.81,2.81,0,0,1-2.81,2.81h-8.6q-12.19,0-19-6t-6.82-19.48v-26.3a2.81,2.81,0,0,0-2.81-2.81h-3.3A2.81,2.81,0,0,1,587,436.3v-13a2.81,2.81,0,0,1,2.81-2.81h3.3a2.81,2.81,0,0,0,2.81-2.81V399.42a2.81,2.81,0,0,1,2.81-2.81h16.81a2.81,2.81,0,0,1,2.81,2.81v18.25a2.81,2.81,0,0,0,2.81,2.81h9.07a2.81,2.81,0,0,1,2.81,2.81v13a2.81,2.81,0,0,1-2.81,2.81h-9.07a2.81,2.81,0,0,0-2.81,2.81v26.57c0,2.18.52,3.76,1.57,4.72s2.8,1.44,5.25,1.44h5.19A2.81,2.81,0,0,1,633.14,477.46Z"/><path d="M703.78,428q7.61,8.34,7.61,22.89v39.7a3.06,3.06,0,0,1-3.06,3.06H692.15a3.06,3.06,0,0,1-3.06-3.06V453.93q0-7.35-3.8-11.41a13.35,13.35,0,0,0-10.23-4.07q-6.43,0-10.23,4.07T661,453.93v36.68a3.06,3.06,0,0,1-3.06,3.06h-16.3a3.06,3.06,0,0,1-3.06-3.06V399.67a3.06,3.06,0,0,1,3.06-3.06H658a3.06,3.06,0,0,1,3.06,3.06v23.17a3.06,3.06,0,0,0,4.94,2.41,26.35,26.35,0,0,1,4.38-2.67,29.78,29.78,0,0,1,13.24-2.88Q696.18,419.7,703.78,428Z"/><path d="M787.4,462.45H744a3.49,3.49,0,0,0-3.31,4.57,13,13,0,0,0,3.56,5.86,13.37,13.37,0,0,0,9.51,3.61q7.35,0,10.79-5.46a3.47,3.47,0,0,1,2.93-1.63h17a3.48,3.48,0,0,1,3.23,4.8,32.68,32.68,0,0,1-5,8.19,33.27,33.27,0,0,1-12,9.05,38.46,38.46,0,0,1-16.13,3.28,39.27,39.27,0,0,1-19.15-4.59A32.6,32.6,0,0,1,722.26,477a40.47,40.47,0,0,1-4.72-19.94,41,41,0,0,1,4.65-19.93,32.27,32.27,0,0,1,13-13.12,42.51,42.51,0,0,1,38.17-.13,32.11,32.11,0,0,1,12.92,12.73A38.61,38.61,0,0,1,791,455.89c0,1.07,0,2.17-.1,3.28A3.49,3.49,0,0,1,787.4,462.45ZM764,450a3.46,3.46,0,0,0,3.32-4.53,11,11,0,0,0-3.2-4.65,14.53,14.53,0,0,0-9.84-3.41,14.24,14.24,0,0,0-9.51,3.28,13.11,13.11,0,0,0-3.39,4.5,3.45,3.45,0,0,0,3.21,4.81Z"/><circle cx="847.22" cy="645.31" r="14.6"/><path d="M330.44,484.07v23.59c-.45,0-.87.11-1.28.11-6.92,0-13.83,0-20.74,0-1.31,0-1.62-.41-1.61-1.65q.09-10.31,0-20.6c0-1.15.24-1.6,1.51-1.59,7,.07,13.92,0,20.88,0C329.58,484,330,484.05,330.44,484.07Zm-4.73,4.74H312.39c-1,0-.85.72-.85,1.34,0,3.81,0,7.62,0,11.43,0,1.2.44,1.46,1.52,1.45,3.86,0,7.72,0,11.58,0a10.92,10.92,0,0,0,1.11-.15Z"/><path d="M330.44,479.2c-.44,0-.77.1-1.09.1-7.07,0-14.13,0-21.19,0-1,0-1.35-.27-1.34-1.31,0-7.06,0-14.12,0-21.18,0-.78.09-1.28,1.08-1.28,7.3,0,14.6,0,21.91,0a3.13,3.13,0,0,1,.62.13Zm-11.79-18.93h0c-2,0-4,0-5.94,0-.88,0-1.2.32-1.19,1.19q0,5.94,0,11.88c0,.85.24,1.23,1.15,1.22,4,0,8,0,12,0,.79,0,1.09-.28,1.09-1.11q0-6,0-12c0-.91-.35-1.18-1.2-1.16C322.61,460.29,320.63,460.27,318.65,460.27Z"/><path d="M335.39,455.67c.5,0,.92-.09,1.34-.1,6.92,0,13.83,0,20.74,0,1.09,0,1.54.23,1.53,1.43-.05,7,0,14,0,21,0,.86-.16,1.31-1.18,1.3-7.21,0-14.41,0-21.61,0a7.23,7.23,0,0,1-.8-.09Zm11.67,18.87c2,0,4,0,5.94,0,.93,0,1.28-.29,1.28-1.24q-.06-5.94,0-11.88c0-.89-.34-1.17-1.19-1.17q-5.94,0-11.87,0c-.87,0-1.21.28-1.2,1.16,0,4,0,7.92,0,11.88,0,.94.33,1.28,1.27,1.25C343.2,474.5,345.13,474.54,347.06,474.54Z"/><path d="M354.25,484.08H359c0,2,0,3.92,0,5.84,0,2.41,0,4.83,0,7.25,0,.79-.23,1.12-1.07,1.11q-6,0-12,0c-.82,0-1.17-.31-1.11-1.1v-.29c-.08-3.46-.08-3.42-3.47-3.37-1.05,0-1.31.41-1.3,1.37,0,3.82,0,7.64,0,11.46,0,1.17-.38,1.55-1.51,1.46s-2,0-3.13,0V484h2.25c3.43,0,6.86.05,10.29,0,1.15,0,1.61.22,1.6,1.49-.05,3.57,0,3.55,3.62,3.35.79-.05,1.13-.3,1.1-1.12C354.23,486.56,354.25,485.4,354.25,484.08Z"/><path d="M359,503.14V507c0,.05,0,.11,0,.14-1,1.4-2.47.37-3.7.59-.26,0-.93-.64-.93-1,0-4.52-.69-3.55,3.38-3.66C358,503.07,358.35,503.11,359,503.14Z"/><path d="M349.51,505.61c0,2.17,0,2.19-2,2.16-2.74,0-2.71.51-2.7-2.1,0-3-.2-2.6,2.2-2.59C349.82,503.09,349.47,502.65,349.51,505.61Z"/><path d="M316.32,495.92c0-2.36,0-2.36,1.85-2.36,2.85,0,2.85,0,2.86,1.47,0,3.23,0,3.23-2.7,3.24C316.32,498.27,316.32,498.27,316.32,495.92Z"/><path d="M321,467.46c-.06,2.45.57,2.32-2.43,2.31-2.7,0-2.24.34-2.28-2.92,0-1.81,0-1.82,2.52-1.81S321,464.87,321,467.46Z"/><path d="M347.32,465c2.18,0,2.18,0,2.19,2.18,0,2.55,0,2.56-2,2.55-3.14,0-2.76.37-2.78-2.47S344.68,465.1,347.32,465Z"/></svg>