<?xml version="1.0" standalone="no"?>
<!DOCTYPE svg PUBLIC "-//W3C//DTD SVG 20010904//EN"
 "http://www.w3.org/TR/2001/REC-SVG-20010904/DTD/svg10.dtd">
<svg version="1.0" xmlns="http://www.w3.org/2000/svg"
 width="4167.000000pt" height="4167.000000pt" viewBox="0 0 4167.000000 4167.000000"
 preserveAspectRatio="xMidYMid meet">

<g transform="translate(0.000000,4167.000000) scale(0.100000,-0.100000)"
fill="#000000" stroke="none">
<path d="M11745 33193 c-475 -40 -936 -200 -1327 -459 -174 -116 -319 -236
-478 -400 -469 -481 -740 -1089 -790 -1772 -8 -105 -10 -2731 -8 -9152 3
-8552 4 -9011 21 -9120 81 -528 252 -944 555 -1350 112 -150 390 -428 542
-542 400 -301 798 -466 1334 -556 94 -15 738 -17 9166 -20 8084 -2 9081 -1
9215 13 709 72 1359 403 1832 934 387 434 628 970 698 1555 14 118 15 1018 13
9241 -3 8728 -4 9114 -21 9215 -92 535 -276 957 -590 1354 -102 129 -323 351
-452 452 -390 308 -836 503 -1341 586 l-139 23 -9095 1 c-5002 0 -9113 -1
-9135 -3z m7455 -6774 l0 -861 39 49 c340 423 979 597 1566 428 457 -132 804
-526 917 -1039 47 -217 48 -248 48 -1498 l0 -1178 -570 0 -569 0 -3 1108 -3
1107 -23 80 c-72 260 -239 432 -479 496 -60 16 -108 21 -208 21 -100 0 -148
-5 -208 -21 -249 -66 -419 -248 -483 -521 -16 -69 -18 -163 -21 -1172 l-4
-1098 -574 0 -575 0 0 2473 c0 1361 3 2477 7 2480 3 4 262 7 575 7 l568 0 0
-861z m-7095 301 l696 -360 339 0 340 0 0 -255 0 -255 -345 0 -344 0 -696
-360 c-383 -198 -698 -360 -700 -360 -3 0 -5 130 -5 289 l0 288 428 198 c235
109 430 200 434 204 4 3 -189 96 -428 205 l-434 199 0 284 c0 167 4 283 9 283
5 0 323 -162 706 -360z m5375 -160 l0 -460 -625 0 -625 0 0 -1890 0 -1890
-575 0 -575 0 0 1890 0 1890 -620 0 -620 0 0 460 0 460 1820 0 1820 0 0 -460z
m6981 -460 c1019 -104 1668 -878 1625 -1941 -3 -86 -9 -177 -12 -202 l-7 -47
-1295 0 -1295 0 7 -57 c19 -165 90 -333 183 -434 125 -135 284 -207 478 -216
273 -13 480 88 599 292 l39 65 608 0 c349 0 609 -4 609 -9 0 -5 -18 -61 -40
-126 -173 -501 -573 -893 -1084 -1060 -311 -102 -697 -128 -1031 -70 -741 129
-1272 620 -1445 1338 -44 182 -60 331 -60 557 0 379 64 678 207 965 266 531
787 877 1424 944 121 12 370 13 490 1z m-10981 -1398 l0 -287 -390 -215 -390
-215 0 -57 0 -58 390 0 390 0 0 -260 0 -260 -1042 2 -1043 3 -3 435 c-4 568 7
667 88 835 84 173 216 282 400 331 80 21 244 24 320 5 83 -20 208 -84 267
-136 63 -56 142 -173 168 -249 11 -31 22 -56 26 -56 3 0 187 106 409 235 222
129 405 235 407 235 2 0 3 -129 3 -288z m-1672 -1879 l2 -273 835 0 835 0 0
-260 0 -260 -835 0 -835 0 0 -275 0 -275 -210 0 -210 0 0 803 c0 442 3 807 7
811 4 3 97 5 207 4 l201 -3 3 -272z m1457 -3952 c360 -888 657 -1616 660
-1619 2 -3 8 4 12 14 4 10 296 739 649 1619 l642 1600 676 3 676 2 0 -2350 0
-2350 -575 0 -575 0 -2 1397 -3 1397 -520 -1397 -520 -1397 -465 0 -465 0
-527 1408 -527 1407 -1 -1407 0 -1408 -575 0 -575 0 0 2350 0 2350 681 -2 680
-3 654 -1614z m6036 699 c1019 -104 1668 -878 1625 -1941 -3 -86 -9 -177 -12
-202 l-7 -47 -1295 0 -1295 0 7 -57 c19 -165 90 -333 183 -434 125 -135 284
-207 478 -216 273 -13 480 88 599 292 l39 65 608 0 c349 0 609 -4 609 -9 0 -5
-18 -61 -40 -126 -173 -501 -573 -893 -1084 -1060 -311 -102 -697 -128 -1031
-70 -741 129 -1272 620 -1445 1338 -44 182 -60 331 -60 557 0 379 64 678 207
965 266 531 787 877 1424 944 121 12 370 13 490 1z m4784 -24 c199 -33 397
-111 552 -218 161 -110 334 -312 428 -498 43 -85 96 -240 123 -355 51 -219 52
-241 52 -1506 l0 -1179 -570 0 -569 0 -3 1108 -3 1107 -23 80 c-72 260 -239
432 -479 496 -60 16 -108 21 -208 21 -100 0 -148 -5 -208 -21 -249 -66 -419
-248 -483 -521 -16 -69 -18 -163 -21 -1172 l-4 -1098 -574 0 -575 0 2 1868 3
1867 573 3 572 2 0 -247 1 -248 21 30 c45 62 172 185 246 238 193 139 418 224
682 257 99 12 352 4 465 -14z m3055 -1058 c0 -1034 3 -1148 35 -1273 60 -235
241 -419 475 -482 90 -25 328 -24 420 0 182 48 338 174 417 337 49 100 69 173
83 301 6 55 10 518 10 1127 l0 1032 573 -2 572 -3 3 -1867 2 -1868 -575 0
-575 0 0 253 -1 252 -21 -30 c-88 -121 -271 -272 -427 -353 -203 -106 -378
-150 -622 -159 -332 -12 -608 55 -856 208 -113 70 -309 262 -382 374 -141 216
-229 478 -261 777 -6 61 -10 526 -10 1258 l0 1160 570 0 570 0 0 -1042z m4125
-1523 c39 -8 108 -33 154 -55 115 -55 234 -173 286 -281 117 -246 73 -513
-114 -699 -152 -151 -357 -217 -593 -190 -176 20 -309 82 -422 196 -114 115
-166 247 -166 419 0 179 54 309 180 435 86 86 178 138 300 170 93 24 274 26
375 5z"/>
<path d="M24055 25175 c-150 -28 -252 -82 -361 -190 -59 -59 -91 -101 -121
-160 -41 -79 -83 -208 -83 -252 l0 -23 710 0 710 0 0 48 c0 69 -34 193 -72
264 -60 113 -185 217 -330 275 -124 50 -307 66 -453 38z"/>
<path d="M11960 24435 c-46 -21 -87 -60 -113 -110 -20 -36 -22 -58 -25 -247
l-4 -208 257 0 256 0 -3 208 c-3 200 -4 209 -29 257 -18 35 -39 59 -74 80 -43
27 -58 30 -139 33 -66 1 -101 -2 -126 -13z"/>
<path d="M18895 18645 c-150 -28 -252 -82 -361 -190 -59 -59 -91 -101 -121
-160 -41 -79 -83 -208 -83 -252 l0 -23 710 0 710 0 0 48 c0 69 -34 193 -72
264 -60 113 -185 217 -330 275 -124 50 -307 66 -453 38z"/>
</g>
</svg>
